STARTFONT 2.3
FONT -FontForge-Shadows Into Light-Book-R-Normal--11-110-72-72-P-45-ISO10646-1
SIZE 11 72 72  4
FONTBOUNDINGBOX 16 18 -2 -5
COMMENT "Generated by fontforge, http://fontforge.sourceforge.net"
COMMENT "Copyright (c) 2010, Kimberly Geswein (kimberlygeswein.com)"
STARTPROPERTIES 40
FOUNDRY "FontForge"
FAMILY_NAME "Shadows Into Light"
WEIGHT_NAME "Book"
SLANT "R"
SETWIDTH_NAME "Normal"
ADD_STYLE_NAME ""
PIXEL_SIZE 11
POINT_SIZE 110
RESOLUTION_X 72
RESOLUTION_Y 72
SPACING "P"
AVERAGE_WIDTH 45
CHARSET_REGISTRY "ISO10646"
CHARSET_ENCODING "1"
FONTNAME_REGISTRY ""
CHARSET_COLLECTIONS "ISO8859-2 ISO8859-9 ISO8859-4 ISO10646-1"
BITS_PER_PIXEL 4
FONT_NAME "ShadowsIntoLight"
FACE_NAME "Shadows Into Light"
COPYRIGHT "Copyright (c) 2010, Kimberly Geswein (kimberlygeswein.com)"
FONT_VERSION "001.000"
FONT_ASCENT 9
FONT_DESCENT 2
UNDERLINE_POSITION 0
UNDERLINE_THICKNESS 0
X_HEIGHT 6
CAP_HEIGHT 7
RAW_ASCENT 799
RAW_DESCENT 200
NORM_SPACE 5
RELATIVE_WEIGHT 40
RELATIVE_SETWIDTH 50
SUPERSCRIPT_X 0
SUPERSCRIPT_Y 5
SUPERSCRIPT_SIZE 7
SUBSCRIPT_X 0
SUBSCRIPT_Y 1
SUBSCRIPT_SIZE 7
AVG_LOWERCASE_WIDTH 40
AVG_UPPERCASE_WIDTH 53
ENDPROPERTIES
CHARS 352
STARTCHAR space
ENCODING 32
SWIDTH 450 0
DWIDTH 5 0
BBX 1 1 0 0
BITMAP
00
ENDCHAR
STARTCHAR exclam
ENCODING 33
SWIDTH 137 0
DWIDTH 2 0
BBX 2 10 0 0
BITMAP
20
70
70
80
80
A0
20
00
00
12
ENDCHAR
STARTCHAR quotedbl
ENCODING 34
SWIDTH 212 0
DWIDTH 2 0
BBX 2 4 0 5
BITMAP
53
76
76
31
ENDCHAR
STARTCHAR numbersign
ENCODING 35
SWIDTH 450 0
DWIDTH 5 0
BBX 5 6 0 1
BITMAP
023400
094910
2C7710
092B50
1B7800
270400
ENDCHAR
STARTCHAR dollar
ENCODING 36
SWIDTH 445 0
DWIDTH 5 0
BBX 5 11 0 -2
BITMAP
003000
009000
04C400
568000
A0A000
46B540
008440
02C400
017100
004400
000100
ENDCHAR
STARTCHAR percent
ENCODING 37
SWIDTH 450 0
DWIDTH 5 0
BBX 5 9 0 0
BITMAP
000500
452700
956300
858000
008110
016780
042770
050100
040000
ENDCHAR
STARTCHAR ampersand
ENCODING 38
SWIDTH 356 0
DWIDTH 4 0
BBX 4 5 0 1
BITMAP
0160
0274
69C1
7880
1160
ENDCHAR
STARTCHAR quotesingle
ENCODING 39
SWIDTH 155 0
DWIDTH 2 0
BBX 2 4 0 3
BITMAP
70
81
61
10
ENDCHAR
STARTCHAR parenleft
ENCODING 40
SWIDTH 291 0
DWIDTH 3 0
BBX 3 9 0 0
BITMAP
0080
0720
1700
6200
8000
8000
8000
6300
0830
ENDCHAR
STARTCHAR parenright
ENCODING 41
SWIDTH 241 0
DWIDTH 3 0
BBX 3 9 0 0
BITMAP
1000
6400
0800
0430
0250
0250
0530
0800
0500
ENDCHAR
STARTCHAR asterisk
ENCODING 42
SWIDTH 481 0
DWIDTH 5 0
BBX 5 6 0 0
BITMAP
016500
55A640
3CF830
4A9740
467000
002000
ENDCHAR
STARTCHAR plus
ENCODING 43
SWIDTH 466 0
DWIDTH 5 0
BBX 5 5 0 1
BITMAP
016000
016130
26B730
338000
005000
ENDCHAR
STARTCHAR comma
ENCODING 44
SWIDTH 112 0
DWIDTH 1 0
BBX 2 4 0 -2
BITMAP
20
91
80
10
ENDCHAR
STARTCHAR hyphen
ENCODING 45
SWIDTH 399 0
DWIDTH 4 0
BBX 5 2 0 2
BITMAP
003710
687300
ENDCHAR
STARTCHAR period
ENCODING 46
SWIDTH 128 0
DWIDTH 1 0
BBX 1 1 0 0
BITMAP
60
ENDCHAR
STARTCHAR slash
ENCODING 47
SWIDTH 306 0
DWIDTH 3 0
BBX 3 9 0 -1
BITMAP
0050
0080
0260
0610
0800
1700
5200
7000
6000
ENDCHAR
STARTCHAR zero
ENCODING 48
SWIDTH 308 0
DWIDTH 3 0
BBX 3 6 0 0
BITMAP
1750
5060
7060
7060
6170
1960
ENDCHAR
STARTCHAR one
ENCODING 49
SWIDTH 112 0
DWIDTH 1 0
BBX 1 7 0 0
BITMAP
50
70
70
80
80
80
60
ENDCHAR
STARTCHAR two
ENCODING 50
SWIDTH 512 0
DWIDTH 6 0
BBX 6 7 0 0
BITMAP
003000
299300
503500
006200
009000
036372
087400
ENDCHAR
STARTCHAR three
ENCODING 51
SWIDTH 461 0
DWIDTH 5 0
BBX 5 8 0 0
BITMAP
027300
863600
008100
09A630
160080
000180
002A10
019100
ENDCHAR
STARTCHAR four
ENCODING 52
SWIDTH 503 0
DWIDTH 6 0
BBX 6 9 0 0
BITMAP
000500
002D00
00AA00
046800
190952
997B30
000800
000800
000800
ENDCHAR
STARTCHAR five
ENCODING 53
SWIDTH 478 0
DWIDTH 5 0
BBX 5 8 0 0
BITMAP
211480
BA5200
820000
828800
870800
200800
008300
026000
ENDCHAR
STARTCHAR six
ENCODING 54
SWIDTH 375 0
DWIDTH 4 0
BBX 4 9 0 0
BITMAP
0800
0800
3500
5200
7013
81A8
8716
8762
3B60
ENDCHAR
STARTCHAR seven
ENCODING 55
SWIDTH 458 0
DWIDTH 5 0
BBX 5 9 0 0
BITMAP
000010
599B90
000830
000900
000800
002600
003400
004500
002700
ENDCHAR
STARTCHAR eight
ENCODING 56
SWIDTH 333 0
DWIDTH 4 0
BBX 4 8 0 0
BITMAP
0480
55A3
8042
8170
1A60
0760
0542
0A81
ENDCHAR
STARTCHAR nine
ENCODING 57
SWIDTH 475 0
DWIDTH 5 0
BBX 5 8 0 0
BITMAP
003500
076A60
554870
84A070
880070
000080
000080
000080
ENDCHAR
STARTCHAR colon
ENCODING 58
SWIDTH 120 0
DWIDTH 1 0
BBX 1 4 0 1
BITMAP
50
00
00
50
ENDCHAR
STARTCHAR semicolon
ENCODING 59
SWIDTH 121 0
DWIDTH 1 0
BBX 2 6 0 -2
BITMAP
20
30
20
91
80
10
ENDCHAR
STARTCHAR less
ENCODING 60
SWIDTH 409 0
DWIDTH 5 0
BBX 5 6 0 1
BITMAP
000640
008600
193000
490000
03A500
000610
ENDCHAR
STARTCHAR equal
ENCODING 61
SWIDTH 433 0
DWIDTH 5 0
BBX 5 3 0 1
BITMAP
389610
111530
676400
ENDCHAR
STARTCHAR greater
ENCODING 62
SWIDTH 450 0
DWIDTH 5 0
BBX 5 7 0 1
BITMAP
100000
3A4000
006910
000720
007600
095000
430000
ENDCHAR
STARTCHAR question
ENCODING 63
SWIDTH 445 0
DWIDTH 5 0
BBX 5 10 0 0
BITMAP
498870
410080
000820
009500
065000
087300
002000
000000
000000
005000
ENDCHAR
STARTCHAR at
ENCODING 64
SWIDTH 945 0
DWIDTH 10 0
BBX 11 10 0 0
BITMAP
000069870000
001930027000
018138107100
081469105300
27275B006100
728275537000
A08700330000
A10000000810
480000059300
049888730000
ENDCHAR
STARTCHAR A
ENCODING 65
SWIDTH 390 0
DWIDTH 4 0
BBX 6 9 0 0
BITMAP
020000
0D0000
1B5000
367000
457110
646A72
796800
810800
600610
ENDCHAR
STARTCHAR B
ENCODING 66
SWIDTH 537 0
DWIDTH 6 0
BBX 6 8 0 0
BITMAP
349A30
960810
625652
4AB428
2C0062
080650
085700
062000
ENDCHAR
STARTCHAR C
ENCODING 67
SWIDTH 487 0
DWIDTH 5 0
BBX 5 8 0 0
BITMAP
029900
081100
170000
530000
800010
8000A0
800740
498300
ENDCHAR
STARTCHAR D
ENCODING 68
SWIDTH 554 0
DWIDTH 6 0
BBX 6 9 0 0
BITMAP
010000
1B8730
6A0157
090007
080016
080081
070750
075700
037000
ENDCHAR
STARTCHAR E
ENCODING 69
SWIDTH 474 0
DWIDTH 5 0
BBX 5 8 0 0
BITMAP
727710
7A2000
530100
445700
4B3000
370170
375810
3B3000
ENDCHAR
STARTCHAR F
ENCODING 70
SWIDTH 428 0
DWIDTH 5 0
BBX 5 8 0 0
BITMAP
300640
988200
A20000
A10120
925710
8A3000
720000
520000
ENDCHAR
STARTCHAR G
ENCODING 71
SWIDTH 591 0
DWIDTH 7 0
BBX 7 10 0 -2
BITMAP
00011000
00493000
03600000
09003510
44038B00
80009800
90088700
4BA42700
00001800
00000100
ENDCHAR
STARTCHAR H
ENCODING 72
SWIDTH 424 0
DWIDTH 5 0
BBX 5 8 0 0
BITMAP
200200
800800
800800
800B00
848B10
880620
700540
710340
ENDCHAR
STARTCHAR I
ENCODING 73
SWIDTH 153 0
DWIDTH 2 0
BBX 2 9 0 0
BITMAP
10
53
44
45
45
35
35
35
25
ENDCHAR
STARTCHAR J
ENCODING 74
SWIDTH 371 0
DWIDTH 4 0
BBX 4 9 0 -1
BITMAP
0051
0053
0045
0028
0009
0008
2008
6108
0672
ENDCHAR
STARTCHAR K
ENCODING 75
SWIDTH 524 0
DWIDTH 6 0
BBX 6 8 0 0
BITMAP
300000
800620
624700
549000
3C2000
2C1000
1C7774
070000
ENDCHAR
STARTCHAR L
ENCODING 76
SWIDTH 537 0
DWIDTH 6 0
BBX 6 7 0 0
BITMAP
810000
920000
920000
830000
830015
742872
7B8100
ENDCHAR
STARTCHAR M
ENCODING 77
SWIDTH 682 0
DWIDTH 8 0
BBX 8 9 0 0
BITMAP
31000210
9A000840
76500850
52903570
53547070
450A8070
46042080
47000090
38000081
ENDCHAR
STARTCHAR N
ENCODING 78
SWIDTH 541 0
DWIDTH 6 0
BBX 6 9 0 0
BITMAP
000030
000081
940072
8C2063
64A053
543753
3606A4
180096
070023
ENDCHAR
STARTCHAR O
ENCODING 79
SWIDTH 382 0
DWIDTH 4 0
BBX 4 8 0 0
BITMAP
0151
0969
3609
8109
8009
800A
9055
4B70
ENDCHAR
STARTCHAR P
ENCODING 80
SWIDTH 508 0
DWIDTH 6 0
BBX 6 9 0 0
BITMAP
178980
890055
360091
362930
3C7100
280000
180000
080000
060000
ENDCHAR
STARTCHAR Q
ENCODING 81
SWIDTH 512 0
DWIDTH 6 0
BBX 6 9 0 0
BITMAP
012300
0C7560
370060
720060
800161
800960
8006A0
5403B0
088762
ENDCHAR
STARTCHAR R
ENCODING 82
SWIDTH 503 0
DWIDTH 6 0
BBX 6 9 0 0
BITMAP
613630
8953A3
820470
828400
891000
8B7000
704A61
700043
600000
ENDCHAR
STARTCHAR S
ENCODING 83
SWIDTH 541 0
DWIDTH 6 0
BBX 6 8 0 0
BITMAP
016950
191000
810000
900000
575310
002468
001593
058300
ENDCHAR
STARTCHAR T
ENCODING 84
SWIDTH 595 0
DWIDTH 7 0
BBX 8 8 0 0
BITMAP
01397883
785A3000
00062000
00054000
00036000
00028000
00009000
00008000
ENDCHAR
STARTCHAR U
ENCODING 85
SWIDTH 450 0
DWIDTH 5 0
BBX 5 9 0 -2
BITMAP
500160
A00390
900680
900870
800A70
713680
297080
000070
000010
ENDCHAR
STARTCHAR V
ENCODING 86
SWIDTH 524 0
DWIDTH 6 0
BBX 6 8 0 0
BITMAP
000026
400064
820091
2900A0
092190
028550
00AA20
003C00
ENDCHAR
STARTCHAR W
ENCODING 87
SWIDTH 878 0
DWIDTH 10 0
BBX 10 9 0 -1
BITMAP
0000000063
7000460080
64007A0090
1900881260
0A03536630
0838109800
0489004A00
00C6000200
0010000000
ENDCHAR
STARTCHAR X
ENCODING 88
SWIDTH 461 0
DWIDTH 5 0
BBX 5 8 0 0
BITMAP
100050
450440
0A0800
05A300
01D000
087500
470900
500450
ENDCHAR
STARTCHAR Y
ENCODING 89
SWIDTH 483 0
DWIDTH 5 0
BBX 5 9 0 0
BITMAP
000030
000080
800080
390450
058910
007A00
005400
009000
008000
ENDCHAR
STARTCHAR Z
ENCODING 90
SWIDTH 670 0
DWIDTH 7 0
BBX 8 8 0 0
BITMAP
47777710
00004B00
0001B100
000A3000
00750000
04800000
2A000000
ACBAAAA1
ENDCHAR
STARTCHAR bracketleft
ENCODING 91
SWIDTH 470 0
DWIDTH 5 0
BBX 5 15 0 -2
BITMAP
123310
A55300
900000
800000
700000
620000
430000
350000
260000
070000
070000
070000
080020
0C9740
010000
ENDCHAR
STARTCHAR backslash
ENCODING 92
SWIDTH 554 0
DWIDTH 6 0
BBX 6 11 0 0
BITMAP
910000
260000
071000
027000
008000
003600
000A00
000460
0000B0
000066
00000B
ENDCHAR
STARTCHAR bracketright
ENCODING 93
SWIDTH 512 0
DWIDTH 6 0
BBX 6 15 0 -2
BITMAP
8988C0
0000B0
0000A0
0000A0
000090
000090
000090
000090
000090
000081
000082
000073
000074
0049B3
001000
ENDCHAR
STARTCHAR asciicircum
ENCODING 94
SWIDTH 390 0
DWIDTH 4 0
BBX 4 4 0 7
BITMAP
0110
0880
3528
5003
ENDCHAR
STARTCHAR underscore
ENCODING 95
SWIDTH 612 0
DWIDTH 7 0
BBX 7 2 0 0
BITMAP
00159B40
7A952000
ENDCHAR
STARTCHAR grave
ENCODING 96
SWIDTH 155 0
DWIDTH 2 0
BBX 2 2 0 6
BITMAP
91
12
ENDCHAR
STARTCHAR a
ENCODING 97
SWIDTH 366 0
DWIDTH 4 0
BBX 4 6 0 0
BITMAP
03C5
0B56
5597
9288
8A18
A405
ENDCHAR
STARTCHAR b
ENCODING 98
SWIDTH 442 0
DWIDTH 5 0
BBX 5 10 0 0
BITMAP
100000
730000
730000
720000
816910
895460
850270
800930
819500
8A3000
ENDCHAR
STARTCHAR c
ENCODING 99
SWIDTH 390 0
DWIDTH 4 0
BBX 4 7 0 0
BITMAP
0430
3890
7220
8000
8005
7009
3A82
ENDCHAR
STARTCHAR d
ENCODING 100
SWIDTH 316 0
DWIDTH 3 0
BBX 4 11 0 -1
BITMAP
0050
0090
0070
0070
08C0
7580
9081
80B1
82B1
9751
0041
ENDCHAR
STARTCHAR e
ENCODING 101
SWIDTH 461 0
DWIDTH 5 0
BBX 5 6 0 0
BITMAP
04A600
1A3A00
7C6000
C30180
620930
298200
ENDCHAR
STARTCHAR f
ENCODING 102
SWIDTH 345 0
DWIDTH 4 0
BBX 4 10 0 0
BITMAP
0580
0B51
0B00
0A00
0945
4C71
2800
0900
0A00
0800
ENDCHAR
STARTCHAR g
ENCODING 103
SWIDTH 437 0
DWIDTH 5 0
BBX 5 11 0 -5
BITMAP
029D10
082E20
537930
819740
9A2660
230560
000560
000730
000900
005600
077000
ENDCHAR
STARTCHAR h
ENCODING 104
SWIDTH 466 0
DWIDTH 5 0
BBX 5 8 0 0
BITMAP
800000
900000
901520
90C690
A67090
AA1090
A70090
710090
ENDCHAR
STARTCHAR i
ENCODING 105
SWIDTH 132 0
DWIDTH 1 0
BBX 1 9 0 0
BITMAP
10
40
20
90
A0
90
90
80
80
ENDCHAR
STARTCHAR j
ENCODING 106
SWIDTH 112 0
DWIDTH 1 0
BBX 4 13 -2 -4
BITMAP
0030
0000
0000
0050
0080
0080
0090
0080
0071
0062
0072
7190
1760
ENDCHAR
STARTCHAR k
ENCODING 107
SWIDTH 428 0
DWIDTH 5 0
BBX 5 10 0 -1
BITMAP
200000
730000
730130
820B20
816800
93B100
9B1000
AA5100
804940
200000
ENDCHAR
STARTCHAR l
ENCODING 108
SWIDTH 137 0
DWIDTH 2 0
BBX 2 10 0 0
BITMAP
20
70
70
70
61
61
62
62
63
52
ENDCHAR
STARTCHAR m
ENCODING 109
SWIDTH 579 0
DWIDTH 6 0
BBX 6 7 0 0
BITMAP
500000
913062
87E2C7
7A7939
6A3D09
68060A
540006
ENDCHAR
STARTCHAR n
ENCODING 110
SWIDTH 483 0
DWIDTH 5 0
BBX 5 7 0 0
BITMAP
200500
809860
929080
884090
7C0090
6A0090
470060
ENDCHAR
STARTCHAR o
ENCODING 111
SWIDTH 266 0
DWIDTH 3 0
BBX 3 6 0 0
BITMAP
4C30
7070
8080
9090
8370
8910
ENDCHAR
STARTCHAR p
ENCODING 112
SWIDTH 482 0
DWIDTH 5 0
BBX 6 9 0 -3
BITMAP
602650
985191
A20380
805900
9A7000
830000
800000
800000
800000
ENDCHAR
STARTCHAR q
ENCODING 113
SWIDTH 408 0
DWIDTH 4 0
BBX 5 8 0 -3
BITMAP
059700
280B00
814C00
809810
472630
000450
000270
000090
ENDCHAR
STARTCHAR r
ENCODING 114
SWIDTH 396 0
DWIDTH 4 0
BBX 4 6 0 0
BITMAP
3068
8581
7910
5C00
2D00
0A00
ENDCHAR
STARTCHAR s
ENCODING 115
SWIDTH 366 0
DWIDTH 4 0
BBX 4 7 0 -1
BITMAP
0272
3810
8000
899A
0038
06A0
0200
ENDCHAR
STARTCHAR t
ENCODING 116
SWIDTH 268 0
DWIDTH 3 0
BBX 4 10 -1 -1
BITMAP
0120
0540
0531
08C8
3B30
0640
0540
0450
0360
0010
ENDCHAR
STARTCHAR u
ENCODING 117
SWIDTH 387 0
DWIDTH 4 0
BBX 4 7 0 -1
BITMAP
2002
8018
9018
8138
72A9
2B69
0001
ENDCHAR
STARTCHAR v
ENCODING 118
SWIDTH 354 0
DWIDTH 4 0
BBX 4 6 0 0
BITMAP
0018
6029
6528
0B37
04C6
0096
ENDCHAR
STARTCHAR w
ENCODING 119
SWIDTH 566 0
DWIDTH 6 0
BBX 6 6 0 0
BITMAP
405204
729909
28A649
0AB099
05B03C
009003
ENDCHAR
STARTCHAR x
ENCODING 120
SWIDTH 454 0
DWIDTH 5 0
BBX 5 8 0 -1
BITMAP
004200
108300
938000
19A000
02E400
056840
082050
070000
ENDCHAR
STARTCHAR y
ENCODING 121
SWIDTH 363 0
DWIDTH 4 0
BBX 4 10 0 -4
BITMAP
0005
9108
2909
0749
00BA
0049
0008
0017
0026
0045
ENDCHAR
STARTCHAR z
ENCODING 122
SWIDTH 618 0
DWIDTH 7 0
BBX 7 6 0 0
BITMAP
00152000
498B3000
101B0000
00730000
00901460
03DA9630
ENDCHAR
STARTCHAR braceleft
ENCODING 123
SWIDTH 348 0
DWIDTH 4 0
BBX 4 11 0 -1
BITMAP
0141
0A34
2700
0800
5910
3600
7A00
9000
8000
8300
1980
ENDCHAR
STARTCHAR bar
ENCODING 124
SWIDTH 137 0
DWIDTH 2 0
BBX 2 10 0 0
BITMAP
20
70
70
70
61
61
62
62
63
52
ENDCHAR
STARTCHAR braceright
ENCODING 125
SWIDTH 348 0
DWIDTH 4 0
BBX 4 12 0 -2
BITMAP
0100
6850
0080
0170
0750
0091
0391
0065
0026
0063
1990
1200
ENDCHAR
STARTCHAR asciitilde
ENCODING 126
SWIDTH 458 0
DWIDTH 5 0
BBX 5 2 0 6
BITMAP
397350
408A10
ENDCHAR
STARTCHAR nonbreakingspace
ENCODING 160
SWIDTH 450 0
DWIDTH 5 0
BBX 1 1 0 0
BITMAP
00
ENDCHAR
STARTCHAR exclamdown
ENCODING 161
SWIDTH 137 0
DWIDTH 2 0
BBX 2 8 0 -2
BITMAP
12
00
10
90
70
70
60
10
ENDCHAR
STARTCHAR cent
ENCODING 162
SWIDTH 394 0
DWIDTH 4 0
BBX 4 9 0 -1
BITMAP
0320
0660
3AC3
7350
8050
8055
706A
3AB2
0050
ENDCHAR
STARTCHAR sterling
ENCODING 163
SWIDTH 539 0
DWIDTH 6 0
BBX 6 9 0 -1
BITMAP
000240
005763
027000
5A9400
2A0000
080000
090430
0A8675
010000
ENDCHAR
STARTCHAR currency
ENCODING 164
SWIDTH 500 0
DWIDTH 6 0
BBX 5 7 0 1
BITMAP
000010
052470
09AD10
080800
070900
0B9C00
743710
ENDCHAR
STARTCHAR yen
ENCODING 165
SWIDTH 478 0
DWIDTH 5 0
BBX 5 9 0 0
BITMAP
050370
0A2A30
04B800
00D200
009320
1AD830
37C720
009000
008000
ENDCHAR
STARTCHAR brokenbar
ENCODING 166
SWIDTH 137 0
DWIDTH 2 0
BBX 2 10 0 0
BITMAP
20
70
70
70
20
62
52
53
63
52
ENDCHAR
STARTCHAR section
ENCODING 167
SWIDTH 366 0
DWIDTH 4 0
BBX 4 10 0 -1
BITMAP
0020
1861
8100
9586
682A
9192
8CAA
0038
06A0
0200
ENDCHAR
STARTCHAR dieresis
ENCODING 168
SWIDTH 306 0
DWIDTH 3 0
BBX 3 2 0 7
BITMAP
0120
2350
ENDCHAR
STARTCHAR copyright
ENCODING 169
SWIDTH 485 0
DWIDTH 5 0
BBX 6 8 0 0
BITMAP
003500
078580
2984A1
774382
8711B1
957BB0
903A20
4BA300
ENDCHAR
STARTCHAR ordfeminine
ENCODING 170
SWIDTH 227 0
DWIDTH 3 0
BBX 3 3 0 2
BITMAP
2800
6810
8330
ENDCHAR
STARTCHAR guillemotleft
ENCODING 171
SWIDTH 652 0
DWIDTH 7 0
BBX 7 6 0 1
BITMAP
00064740
00879500
19592000
493A2000
03A7A810
00061410
ENDCHAR
STARTCHAR logicalnot
ENCODING 172
SWIDTH 539 0
DWIDTH 6 0
BBX 6 4 0 1
BITMAP
034552
144446
000017
000004
ENDCHAR
STARTCHAR uni00AD
ENCODING 173
SWIDTH 399 0
DWIDTH 4 0
BBX 5 2 0 2
BITMAP
003710
687300
ENDCHAR
STARTCHAR registered
ENCODING 174
SWIDTH 382 0
DWIDTH 4 0
BBX 6 8 0 0
BITMAP
002200
059B50
284590
784882
87B182
8738B0
920560
4CA600
ENDCHAR
STARTCHAR macron
ENCODING 175
SWIDTH 399 0
DWIDTH 4 0
BBX 5 2 0 7
BITMAP
001200
588710
ENDCHAR
STARTCHAR degree
ENCODING 176
SWIDTH 201 0
DWIDTH 2 0
BBX 2 2 0 4
BITMAP
68
56
ENDCHAR
STARTCHAR plusminus
ENCODING 177
SWIDTH 466 0
DWIDTH 5 0
BBX 5 6 0 0
BITMAP
016000
016000
26B710
338000
14B910
121000
ENDCHAR
STARTCHAR twosuperior
ENCODING 178
SWIDTH 318 0
DWIDTH 4 0
BBX 4 4 0 2
BITMAP
1500
3500
0500
1741
ENDCHAR
STARTCHAR threesuperior
ENCODING 179
SWIDTH 280 0
DWIDTH 3 0
BBX 3 5 0 2
BITMAP
0300
4600
3740
0050
0620
ENDCHAR
STARTCHAR acute
ENCODING 180
SWIDTH 155 0
DWIDTH 2 0
BBX 2 2 0 6
BITMAP
45
40
ENDCHAR
STARTCHAR mu
ENCODING 181
SWIDTH 387 0
DWIDTH 4 0
BBX 4 8 0 -2
BITMAP
7017
9019
A029
A16A
A6BA
8611
7000
2000
ENDCHAR
STARTCHAR paragraph
ENCODING 182
SWIDTH 447 0
DWIDTH 5 0
BBX 5 7 0 0
BITMAP
3CEE30
AFF740
696840
003950
002960
001960
001650
ENDCHAR
STARTCHAR periodcentered
ENCODING 183
SWIDTH 128 0
DWIDTH 1 0
BBX 1 2 0 2
BITMAP
10
60
ENDCHAR
STARTCHAR cedilla
ENCODING 184
SWIDTH 322 0
DWIDTH 4 0
BBX 4 5 0 -4
BITMAP
1100
4600
1990
15D2
1410
ENDCHAR
STARTCHAR onesuperior
ENCODING 185
SWIDTH 112 0
DWIDTH 1 0
BBX 1 4 0 2
BITMAP
40
60
70
60
ENDCHAR
STARTCHAR ordmasculine
ENCODING 186
SWIDTH 212 0
DWIDTH 2 0
BBX 3 3 0 2
BITMAP
6710
7420
7600
ENDCHAR
STARTCHAR guillemotright
ENCODING 187
SWIDTH 625 0
DWIDTH 7 0
BBX 7 7 0 1
BITMAP
10210000
3A6A6000
00695A20
00072720
00768500
096A4000
43320000
ENDCHAR
STARTCHAR onequarter
ENCODING 188
SWIDTH 678 0
DWIDTH 7 0
BBX 7 9 0 -1
BITMAP
00230000
20710000
60801700
71609900
76262800
67685A50
17000800
53000700
60000000
ENDCHAR
STARTCHAR onehalf
ENCODING 189
SWIDTH 693 0
DWIDTH 8 0
BBX 7 9 0 -1
BITMAP
00050000
20070000
50440000
60747000
60A46000
53506000
07116120
07066510
05000000
ENDCHAR
STARTCHAR threequarters
ENCODING 190
SWIDTH 868 0
DWIDTH 10 0
BBX 8 9 0 -1
BITMAP
05700320
42600750
07840C90
05063C60
0017C394
0281F570
00016060
00062060
00060000
ENDCHAR
STARTCHAR questiondown
ENCODING 191
SWIDTH 541 0
DWIDTH 6 0
BBX 5 10 1 -1
BITMAP
005000
000000
000000
056100
016500
03A000
390000
900010
A57A50
121000
ENDCHAR
STARTCHAR Agrave
ENCODING 192
SWIDTH 390 0
DWIDTH 4 0
BBX 6 10 0 0
BITMAP
082000
023000
0C2000
0B7000
187000
276300
463C73
5A6900
620800
600330
ENDCHAR
STARTCHAR Aacute
ENCODING 193
SWIDTH 390 0
DWIDTH 4 0
BBX 6 10 0 0
BITMAP
090000
250000
0D0000
1B5000
367000
457110
646A72
796800
810800
600610
ENDCHAR
STARTCHAR Acircumflex
ENCODING 194
SWIDTH 390 0
DWIDTH 4 0
BBX 7 12 -1 0
BITMAP
00200000
04A20000
08082000
23213000
00D00000
01B50000
03670000
04571100
0646A720
07968000
08108000
06006100
ENDCHAR
STARTCHAR Atilde
ENCODING 195
SWIDTH 390 0
DWIDTH 4 0
BBX 7 11 -1 0
BITMAP
08917000
142B6000
00200000
00D00000
01B50000
03670000
04571100
0646A720
07968000
08108000
06006100
ENDCHAR
STARTCHAR Adieresis
ENCODING 196
SWIDTH 390 0
DWIDTH 4 0
BBX 6 11 0 0
BITMAP
112000
325000
020000
0D0000
1B5000
367000
457110
646A72
796800
810800
600610
ENDCHAR
STARTCHAR Aring
ENCODING 197
SWIDTH 390 0
DWIDTH 4 0
BBX 6 10 0 0
BITMAP
684000
A57000
1E0000
1B5000
367000
457110
646A72
796800
810800
600610
ENDCHAR
STARTCHAR AE
ENCODING 198
SWIDTH 708 0
DWIDTH 8 0
BBX 8 9 0 0
BITMAP
02000000
0D084960
1B5B6000
36780010
45792720
646F6000
796F1054
810B3840
60068100
ENDCHAR
STARTCHAR Ccedilla
ENCODING 199
SWIDTH 487 0
DWIDTH 5 0
BBX 5 12 0 -4
BITMAP
029900
081100
170000
530000
800010
8000A0
800740
498300
053000
02C600
002D10
027400
ENDCHAR
STARTCHAR Egrave
ENCODING 200
SWIDTH 474 0
DWIDTH 5 0
BBX 5 10 0 0
BITMAP
073000
003000
727710
7A2000
530100
445700
4B3000
370170
375810
3B3000
ENDCHAR
STARTCHAR Eacute
ENCODING 201
SWIDTH 474 0
DWIDTH 5 0
BBX 5 10 0 0
BITMAP
008200
004000
727710
7A2000
530100
445700
4B3000
370170
375810
3B3000
ENDCHAR
STARTCHAR Ecircumflex
ENCODING 202
SWIDTH 474 0
DWIDTH 5 0
BBX 5 12 0 0
BITMAP
002000
02A400
080730
140040
727710
7A2000
530100
445700
4B3000
370170
375810
3B3000
ENDCHAR
STARTCHAR Edieresis
ENCODING 203
SWIDTH 474 0
DWIDTH 5 0
BBX 5 11 0 0
BITMAP
010100
052300
000000
727710
7A2000
530100
445700
4B3000
370170
375810
3B3000
ENDCHAR
STARTCHAR Igrave
ENCODING 204
SWIDTH 153 0
DWIDTH 2 0
BBX 2 10 0 0
BITMAP
91
22
53
44
45
45
35
35
35
25
ENDCHAR
STARTCHAR Iacute
ENCODING 205
SWIDTH 153 0
DWIDTH 2 0
BBX 2 10 0 0
BITMAP
37
51
53
44
45
45
35
35
35
25
ENDCHAR
STARTCHAR Icircumflex
ENCODING 206
SWIDTH 153 0
DWIDTH 2 0
BBX 4 12 -1 0
BITMAP
0100
0970
5437
5104
0530
0440
0450
0450
0350
0350
0350
0250
ENDCHAR
STARTCHAR Idieresis
ENCODING 207
SWIDTH 153 0
DWIDTH 2 0
BBX 3 11 -1 0
BITMAP
0220
1450
0100
0530
0440
0450
0450
0350
0350
0350
0250
ENDCHAR
STARTCHAR Eth
ENCODING 208
SWIDTH 554 0
DWIDTH 6 0
BBX 6 9 0 0
BITMAP
010000
1B8730
6A0157
090007
080016
080081
5DA750
075700
037000
ENDCHAR
STARTCHAR Ntilde
ENCODING 209
SWIDTH 541 0
DWIDTH 6 0
BBX 6 10 0 0
BITMAP
397250
417A40
000081
940072
8C2063
64A053
543753
3606A4
180096
070023
ENDCHAR
STARTCHAR Ograve
ENCODING 210
SWIDTH 382 0
DWIDTH 4 0
BBX 4 10 0 0
BITMAP
0082
0013
0151
0969
3609
8109
8009
800A
9055
4B70
ENDCHAR
STARTCHAR Oacute
ENCODING 211
SWIDTH 382 0
DWIDTH 4 0
BBX 4 9 0 0
BITMAP
0370
0561
0969
3609
8109
8009
800A
9055
4B70
ENDCHAR
STARTCHAR Ocircumflex
ENCODING 212
SWIDTH 382 0
DWIDTH 4 0
BBX 4 11 0 0
BITMAP
0100
0980
4437
5154
0969
3609
8109
8009
800A
9055
4B70
ENDCHAR
STARTCHAR Otilde
ENCODING 213
SWIDTH 382 0
DWIDTH 4 0
BBX 5 10 0 0
BITMAP
298160
416A20
015100
096900
360900
810900
800900
800A00
905500
4B7000
ENDCHAR
STARTCHAR Odieresis
ENCODING 214
SWIDTH 382 0
DWIDTH 4 0
BBX 4 10 0 0
BITMAP
0112
0325
0151
0969
3609
8109
8009
800A
9055
4B70
ENDCHAR
STARTCHAR multiply
ENCODING 215
SWIDTH 454 0
DWIDTH 5 0
BBX 4 5 0 1
BITMAP
0100
0818
04C1
0982
1214
ENDCHAR
STARTCHAR Oslash
ENCODING 216
SWIDTH 382 0
DWIDTH 4 0
BBX 4 9 0 -1
BITMAP
0155
099A
3679
8189
8359
871A
9855
5D70
4100
ENDCHAR
STARTCHAR Ugrave
ENCODING 217
SWIDTH 450 0
DWIDTH 5 0
BBX 5 11 0 -2
BITMAP
037000
003000
500160
A00390
900680
900870
800A70
713680
297080
000070
000010
ENDCHAR
STARTCHAR Uacute
ENCODING 218
SWIDTH 450 0
DWIDTH 5 0
BBX 5 10 0 -2
BITMAP
006300
505160
A00390
900680
900870
800A70
713680
297080
000070
000010
ENDCHAR
STARTCHAR Ucircumflex
ENCODING 219
SWIDTH 450 0
DWIDTH 5 0
BBX 5 13 0 -2
BITMAP
002000
069100
080910
310120
500160
A00390
900680
900870
800A70
713680
297080
000070
000010
ENDCHAR
STARTCHAR Udieresis
ENCODING 220
SWIDTH 450 0
DWIDTH 5 0
BBX 5 11 0 -2
BITMAP
010200
042400
500160
A00390
900680
900870
800A70
713680
297080
000070
000010
ENDCHAR
STARTCHAR Yacute
ENCODING 221
SWIDTH 483 0
DWIDTH 5 0
BBX 5 10 0 0
BITMAP
002700
004130
000080
800080
390450
058910
007A00
005400
009000
008000
ENDCHAR
STARTCHAR Thorn
ENCODING 222
SWIDTH 398 0
DWIDTH 4 0
BBX 5 9 0 0
BITMAP
620000
811100
889B00
960620
900900
918400
A92000
A00000
700000
ENDCHAR
STARTCHAR germandbls
ENCODING 223
SWIDTH 537 0
DWIDTH 6 0
BBX 6 8 0 0
BITMAP
349A30
960810
625652
4AB428
2C0062
080650
085700
062000
ENDCHAR
STARTCHAR agrave
ENCODING 224
SWIDTH 366 0
DWIDTH 4 0
BBX 4 8 0 0
BITMAP
0810
0120
03C5
0B56
5597
9288
8A18
A405
ENDCHAR
STARTCHAR aacute
ENCODING 225
SWIDTH 366 0
DWIDTH 4 0
BBX 4 8 0 0
BITMAP
0190
0320
03C5
0B56
5597
9288
8A18
A405
ENDCHAR
STARTCHAR acircumflex
ENCODING 226
SWIDTH 366 0
DWIDTH 4 0
BBX 4 11 0 0
BITMAP
0200
0970
5346
5004
0000
03C5
0B56
5597
9288
8A18
A405
ENDCHAR
STARTCHAR atilde
ENCODING 227
SWIDTH 366 0
DWIDTH 4 0
BBX 5 8 0 0
BITMAP
595430
509910
03C500
0B5600
559700
928800
8A1800
A40500
ENDCHAR
STARTCHAR adieresis
ENCODING 228
SWIDTH 366 0
DWIDTH 4 0
BBX 4 9 0 0
BITMAP
0210
0541
0000
03C5
0B56
5597
9288
8A18
A405
ENDCHAR
STARTCHAR aring
ENCODING 229
SWIDTH 366 0
DWIDTH 4 0
BBX 4 8 0 0
BITMAP
0461
0A47
07E5
0B56
5597
9288
8A18
A405
ENDCHAR
STARTCHAR ae
ENCODING 230
SWIDTH 705 0
DWIDTH 8 0
BBX 8 7 0 0
BITMAP
00000100
03C5B870
0B5C6840
559F8101
92AD0065
8A1B0570
A4078400
ENDCHAR
STARTCHAR ccedilla
ENCODING 231
SWIDTH 390 0
DWIDTH 4 0
BBX 4 11 0 -4
BITMAP
0430
3890
7220
8000
8005
7009
3A82
0900
06B3
0289
0440
ENDCHAR
STARTCHAR egrave
ENCODING 232
SWIDTH 461 0
DWIDTH 5 0
BBX 5 8 0 0
BITMAP
028000
003000
04A600
1A3A00
7C6000
C30180
620930
298200
ENDCHAR
STARTCHAR eacute
ENCODING 233
SWIDTH 461 0
DWIDTH 5 0
BBX 5 8 0 0
BITMAP
006400
005000
04A600
1A3A00
7C6000
C30180
620930
298200
ENDCHAR
STARTCHAR ecircumflex
ENCODING 234
SWIDTH 461 0
DWIDTH 5 0
BBX 5 11 0 0
BITMAP
002000
05A200
080810
320130
000000
04A600
1A3A00
7C6000
C30180
620930
298200
ENDCHAR
STARTCHAR edieresis
ENCODING 235
SWIDTH 461 0
DWIDTH 5 0
BBX 5 9 0 0
BITMAP
011200
042400
000000
04A600
1A3A00
7C6000
C30180
620930
298200
ENDCHAR
STARTCHAR igrave
ENCODING 236
SWIDTH 132 0
DWIDTH 1 0
BBX 1 9 0 0
BITMAP
80
50
20
90
A0
90
90
80
80
ENDCHAR
STARTCHAR iacute
ENCODING 237
SWIDTH 132 0
DWIDTH 1 0
BBX 2 10 0 0
BITMAP
01
65
10
20
90
A0
90
90
80
80
ENDCHAR
STARTCHAR icircumflex
ENCODING 238
SWIDTH 132 0
DWIDTH 1 0
BBX 5 11 -2 0
BITMAP
002000
02A400
080730
140040
002000
009000
00A000
009000
009000
008000
008000
ENDCHAR
STARTCHAR idieresis
ENCODING 239
SWIDTH 132 0
DWIDTH 1 0
BBX 3 9 -1 0
BITMAP
0120
2350
0200
0900
0A00
0900
0900
0800
0800
ENDCHAR
STARTCHAR eth
ENCODING 240
SWIDTH 481 0
DWIDTH 5 0
BBX 6 7 0 0
BITMAP
007000
007200
059C71
042810
2AA920
350D00
099400
ENDCHAR
STARTCHAR ntilde
ENCODING 241
SWIDTH 483 0
DWIDTH 5 0
BBX 5 9 0 0
BITMAP
099170
234B50
200500
809860
929080
884090
7C0090
6A0090
470060
ENDCHAR
STARTCHAR ograve
ENCODING 242
SWIDTH 266 0
DWIDTH 3 0
BBX 3 8 0 0
BITMAP
3700
0300
4C30
7070
8080
9090
8370
8910
ENDCHAR
STARTCHAR oacute
ENCODING 243
SWIDTH 266 0
DWIDTH 3 0
BBX 3 8 0 0
BITMAP
0730
0500
4C30
7070
8080
9090
8370
8910
ENDCHAR
STARTCHAR ocircumflex
ENCODING 244
SWIDTH 266 0
DWIDTH 3 0
BBX 5 11 -1 0
BITMAP
002000
059200
080910
320120
000000
04C300
070700
080800
090900
083700
089100
ENDCHAR
STARTCHAR otilde
ENCODING 245
SWIDTH 266 0
DWIDTH 3 0
BBX 5 9 -1 0
BITMAP
199170
225B40
000000
04C300
070700
080800
090900
083700
089100
ENDCHAR
STARTCHAR odieresis
ENCODING 246
SWIDTH 266 0
DWIDTH 3 0
BBX 3 9 0 0
BITMAP
1020
4240
0000
4C30
7070
8080
9090
8370
8910
ENDCHAR
STARTCHAR divide
ENCODING 247
SWIDTH 345 0
DWIDTH 4 0
BBX 4 4 0 1
BITMAP
0400
3684
1210
0310
ENDCHAR
STARTCHAR oslash
ENCODING 248
SWIDTH 266 0
DWIDTH 3 0
BBX 3 8 0 -1
BITMAP
0030
4C80
7490
8780
9790
B570
B910
6000
ENDCHAR
STARTCHAR ugrave
ENCODING 249
SWIDTH 387 0
DWIDTH 4 0
BBX 4 9 0 -1
BITMAP
0730
0030
2002
8018
9018
8138
72A9
2B69
0001
ENDCHAR
STARTCHAR uacute
ENCODING 250
SWIDTH 387 0
DWIDTH 4 0
BBX 4 9 0 -1
BITMAP
0090
0230
2002
8018
9018
8138
72A9
2B69
0001
ENDCHAR
STARTCHAR ucircumflex
ENCODING 251
SWIDTH 387 0
DWIDTH 4 0
BBX 4 12 0 -1
BITMAP
0100
0880
3527
5003
0000
2002
8018
9018
8138
72A9
2B69
0001
ENDCHAR
STARTCHAR udieresis
ENCODING 252
SWIDTH 387 0
DWIDTH 4 0
BBX 4 10 0 -1
BITMAP
0211
0541
0000
2002
8018
9018
8138
72A9
2B69
0001
ENDCHAR
STARTCHAR yacute
ENCODING 253
SWIDTH 363 0
DWIDTH 4 0
BBX 4 12 0 -4
BITMAP
0190
0320
0005
9108
2909
0749
00BA
0049
0008
0017
0026
0045
ENDCHAR
STARTCHAR thorn
ENCODING 254
SWIDTH 439 0
DWIDTH 5 0
BBX 5 9 0 -1
BITMAP
100000
917730
981170
810810
729200
7A1000
700000
800000
200000
ENDCHAR
STARTCHAR ydieresis
ENCODING 255
SWIDTH 363 0
DWIDTH 4 0
BBX 4 13 0 -4
BITMAP
0210
0541
0000
0005
9108
2909
0749
00BA
0049
0008
0017
0026
0045
ENDCHAR
STARTCHAR Amacron
ENCODING 256
SWIDTH 390 0
DWIDTH 4 0
BBX 6 10 0 0
BITMAP
001200
697600
0D0000
1B5000
367000
457110
646A72
796800
810800
600610
ENDCHAR
STARTCHAR amacron
ENCODING 257
SWIDTH 366 0
DWIDTH 4 0
BBX 4 9 0 0
BITMAP
0012
6876
0000
03C5
0B56
5597
9288
8A18
A405
ENDCHAR
STARTCHAR Abreve
ENCODING 258
SWIDTH 390 0
DWIDTH 4 0
BBX 6 10 0 0
BITMAP
379200
063000
0D0000
1B5000
367000
457110
646A72
796800
810800
600610
ENDCHAR
STARTCHAR abreve
ENCODING 259
SWIDTH 366 0
DWIDTH 4 0
BBX 4 8 0 0
BITMAP
1875
0240
03C5
0B56
5597
9288
8A18
A405
ENDCHAR
STARTCHAR Aogonek
ENCODING 260
SWIDTH 390 0
DWIDTH 4 0
BBX 6 12 0 -3
BITMAP
020000
0D0000
1B5000
367000
457110
646A72
796800
810800
600610
001900
003521
000881
ENDCHAR
STARTCHAR aogonek
ENCODING 261
SWIDTH 366 0
DWIDTH 4 0
BBX 5 9 0 -3
BITMAP
03C500
0B5600
559700
928800
8A1800
A41800
008100
007670
000410
ENDCHAR
STARTCHAR Cacute
ENCODING 262
SWIDTH 487 0
DWIDTH 5 0
BBX 5 10 0 0
BITMAP
006400
005000
029900
081100
170000
530000
800010
8000A0
800740
498300
ENDCHAR
STARTCHAR cacute
ENCODING 263
SWIDTH 390 0
DWIDTH 4 0
BBX 4 9 0 0
BITMAP
0280
0410
0430
3890
7220
8000
8005
7009
3A82
ENDCHAR
STARTCHAR Ccircumflex
ENCODING 264
SWIDTH 487 0
DWIDTH 5 0
BBX 5 12 0 0
BITMAP
002000
03A300
080820
230030
029900
081100
170000
530000
800010
8000A0
800740
498300
ENDCHAR
STARTCHAR ccircumflex
ENCODING 265
SWIDTH 390 0
DWIDTH 4 0
BBX 4 11 0 0
BITMAP
0100
0880
3527
5003
0430
3890
7220
8000
8005
7009
3A82
ENDCHAR
STARTCHAR Cdotaccent
ENCODING 266
SWIDTH 487 0
DWIDTH 5 0
BBX 5 10 0 0
BITMAP
007000
000000
029900
081100
170000
530000
800010
8000A0
800740
498300
ENDCHAR
STARTCHAR cdotaccent
ENCODING 267
SWIDTH 390 0
DWIDTH 4 0
BBX 4 8 0 0
BITMAP
0200
0730
3890
8220
8000
8005
7009
3982
ENDCHAR
STARTCHAR Ccaron
ENCODING 268
SWIDTH 487 0
DWIDTH 5 0
BBX 5 11 0 0
BITMAP
050230
047500
002000
029900
081100
170000
530000
800010
8000A0
800740
498300
ENDCHAR
STARTCHAR ccaron
ENCODING 269
SWIDTH 390 0
DWIDTH 4 0
BBX 4 9 0 0
BITMAP
5105
0872
0530
3890
7220
8000
8005
7009
3A82
ENDCHAR
STARTCHAR Dcaron
ENCODING 270
SWIDTH 554 0
DWIDTH 6 0
BBX 6 10 0 0
BITMAP
042050
018620
1B9730
6A0157
090007
080016
080081
070750
075700
037000
ENDCHAR
STARTCHAR Emacron
ENCODING 274
SWIDTH 474 0
DWIDTH 5 0
BBX 5 10 0 0
BITMAP
000210
478720
727710
7A2000
530100
445700
4B3000
370170
375810
3B3000
ENDCHAR
STARTCHAR emacron
ENCODING 275
SWIDTH 461 0
DWIDTH 5 0
BBX 5 9 0 0
BITMAP
000210
378730
000000
04A600
1A3A00
7C6000
C30180
620930
298200
ENDCHAR
STARTCHAR Ebreve
ENCODING 276
SWIDTH 474 0
DWIDTH 5 0
BBX 5 10 0 0
BITMAP
065A00
005100
727710
7A2000
530100
445700
4B3000
370170
375810
3B3000
ENDCHAR
STARTCHAR ebreve
ENCODING 277
SWIDTH 461 0
DWIDTH 5 0
BBX 5 8 0 0
BITMAP
065A00
005100
04A600
1A3A00
7C6000
C30180
620930
298200
ENDCHAR
STARTCHAR Edotaccent
ENCODING 278
SWIDTH 474 0
DWIDTH 5 0
BBX 5 9 0 0
BITMAP
025000
727710
7A2000
530100
445700
4B3000
370170
375810
3B3000
ENDCHAR
STARTCHAR edotaccent
ENCODING 279
SWIDTH 461 0
DWIDTH 5 0
BBX 5 7 0 0
BITMAP
007000
04A600
1A3A00
7C6000
C30180
620930
298200
ENDCHAR
STARTCHAR Eogonek
ENCODING 280
SWIDTH 474 0
DWIDTH 5 0
BBX 5 9 0 -1
BITMAP
727710
7A2000
530100
445700
4B3000
370170
375810
3BB000
006980
ENDCHAR
STARTCHAR eogonek
ENCODING 281
SWIDTH 461 0
DWIDTH 5 0
BBX 5 9 0 -3
BITMAP
04A600
1A3A00
7C6000
C30180
620930
299200
072000
067900
003100
ENDCHAR
STARTCHAR Ecaron
ENCODING 282
SWIDTH 474 0
DWIDTH 5 0
BBX 5 10 0 0
BITMAP
230410
076300
729710
7A2000
530100
445700
4B3000
370170
375810
3B3000
ENDCHAR
STARTCHAR ecaron
ENCODING 283
SWIDTH 461 0
DWIDTH 5 0
BBX 5 9 0 0
BITMAP
140420
066400
002000
04A600
1A3A00
7C6000
C30180
620930
298200
ENDCHAR
STARTCHAR Gcircumflex
ENCODING 284
SWIDTH 591 0
DWIDTH 7 0
BBX 7 13 0 -2
BITMAP
00110000
00880000
02628000
05014100
00493000
03600000
09003510
44038B00
80009800
90088700
4BA42700
00001800
00000100
ENDCHAR
STARTCHAR gcircumflex
ENCODING 285
SWIDTH 437 0
DWIDTH 5 0
BBX 5 16 0 -5
BITMAP
001000
069100
171810
410220
000000
029D10
082E20
537930
819740
9A2660
230560
000560
000730
000900
005600
077000
ENDCHAR
STARTCHAR Gbreve
ENCODING 286
SWIDTH 591 0
DWIDTH 7 0
BBX 7 11 0 -2
BITMAP
0075A000
00062000
00493000
03600000
09003510
44038B00
80009800
90088700
4BA42700
00001800
00000100
ENDCHAR
STARTCHAR gbreve
ENCODING 287
SWIDTH 437 0
DWIDTH 5 0
BBX 5 14 0 -5
BITMAP
075900
005100
000000
029D10
082E20
537930
819740
9A2660
230560
000560
000730
000900
005600
077000
ENDCHAR
STARTCHAR Gdotaccent
ENCODING 288
SWIDTH 591 0
DWIDTH 7 0
BBX 7 11 0 -2
BITMAP
00070000
00001000
00395000
01800000
08102530
17026D10
62006B00
81069900
3AA60900
00000A00
00000100
ENDCHAR
STARTCHAR gdotaccent
ENCODING 289
SWIDTH 437 0
DWIDTH 5 0
BBX 5 13 0 -5
BITMAP
003300
000000
029D10
082E20
537930
819740
9A2660
230560
000560
000730
000900
005600
077000
ENDCHAR
STARTCHAR Gcommaaccent
ENCODING 290
SWIDTH 591 0
DWIDTH 7 0
BBX 7 12 0 -4
BITMAP
00011000
00493000
03600000
09003510
44038B00
80009800
90088700
4BA42700
00001800
00270100
00270000
00120000
ENDCHAR
STARTCHAR Hcircumflex
ENCODING 292
SWIDTH 424 0
DWIDTH 5 0
BBX 5 12 0 0
BITMAP
011000
088000
352700
500300
200200
800800
800800
800B00
848B10
880620
700540
710340
ENDCHAR
STARTCHAR hcircumflex
ENCODING 293
SWIDTH 466 0
DWIDTH 5 0
BBX 6 11 0 0
BITMAP
000100
006910
017181
841022
900000
901520
90C690
A67090
AA1090
A70090
710090
ENDCHAR
STARTCHAR Hbar
ENCODING 294
SWIDTH 424 0
DWIDTH 5 0
BBX 5 8 0 0
BITMAP
200200
800800
957C10
932C00
848B10
880620
700540
710340
ENDCHAR
STARTCHAR hbar
ENCODING 295
SWIDTH 466 0
DWIDTH 5 0
BBX 6 8 -1 0
BITMAP
080000
090000
4C8972
0A0C69
0A6709
0AA109
0A7009
071009
ENDCHAR
STARTCHAR Itilde
ENCODING 296
SWIDTH 153 0
DWIDTH 2 0
BBX 5 11 -2 0
BITMAP
089170
143B60
001000
005300
004400
004500
004500
003500
003500
003500
002500
ENDCHAR
STARTCHAR itilde
ENCODING 297
SWIDTH 132 0
DWIDTH 1 0
BBX 5 9 -2 0
BITMAP
077040
347A60
002100
009000
00A000
009000
009000
008000
008000
ENDCHAR
STARTCHAR imacron
ENCODING 299
SWIDTH 132 0
DWIDTH 1 0
BBX 5 9 -2 0
BITMAP
000120
178740
002000
009000
00A000
009000
009000
008000
008000
ENDCHAR
STARTCHAR Ibreve
ENCODING 300
SWIDTH 153 0
DWIDTH 2 0
BBX 4 11 -1 0
BITMAP
3792
0430
0100
0530
0440
0450
0450
0350
0350
0350
0250
ENDCHAR
STARTCHAR ibreve
ENCODING 301
SWIDTH 132 0
DWIDTH 1 0
BBX 4 9 -1 0
BITMAP
3142
1A80
0200
0900
0A00
0900
0900
0800
0800
ENDCHAR
STARTCHAR Iogonek
ENCODING 302
SWIDTH 153 0
DWIDTH 2 0
BBX 3 12 0 -3
BITMAP
1000
5300
4400
4500
4500
3500
3500
3500
5500
9000
8860
0100
ENDCHAR
STARTCHAR iogonek
ENCODING 303
SWIDTH 132 0
DWIDTH 1 0
BBX 4 12 -1 -3
BITMAP
0100
0400
0200
0900
0A00
0900
0900
0800
0800
1900
3642
0660
ENDCHAR
STARTCHAR Idotaccent
ENCODING 304
SWIDTH 153 0
DWIDTH 2 0
BBX 2 10 0 0
BITMAP
52
10
71
62
63
53
53
53
54
43
ENDCHAR
STARTCHAR dotlessi
ENCODING 305
SWIDTH 132 0
DWIDTH 1 0
BBX 1 7 0 0
BITMAP
20
90
A0
90
90
80
80
ENDCHAR
STARTCHAR Jcircumflex
ENCODING 308
SWIDTH 371 0
DWIDTH 4 0
BBX 5 13 0 -1
BITMAP
002000
02A400
080720
140030
005100
005300
004500
002800
000900
000800
200800
610800
067200
ENDCHAR
STARTCHAR jcircumflex
ENCODING 309
SWIDTH 112 0
DWIDTH 1 0
BBX 5 15 -2 -4
BITMAP
002000
04A300
080820
230130
000000
005000
008000
008000
009000
008000
007100
006200
007200
719000
176000
ENDCHAR
STARTCHAR Kcommaaccent
ENCODING 310
SWIDTH 524 0
DWIDTH 6 0
BBX 6 12 0 -4
BITMAP
300000
800620
624700
549000
3C2000
2C1000
1C7774
070000
000000
007200
007200
003000
ENDCHAR
STARTCHAR kcommaaccent
ENCODING 311
SWIDTH 428 0
DWIDTH 5 0
BBX 5 13 0 -4
BITMAP
200000
730000
730130
820B20
816800
93B100
9B1000
AA5100
804940
200000
019000
009000
003000
ENDCHAR
STARTCHAR Lacute
ENCODING 313
SWIDTH 537 0
DWIDTH 6 0
BBX 6 8 0 0
BITMAP
001900
813100
920000
920000
830000
830015
742872
7B8100
ENDCHAR
STARTCHAR lacute
ENCODING 314
SWIDTH 137 0
DWIDTH 2 0
BBX 2 12 0 0
BITMAP
64
50
20
70
70
70
61
61
62
62
63
52
ENDCHAR
STARTCHAR Lcommaaccent
ENCODING 315
SWIDTH 537 0
DWIDTH 6 0
BBX 6 11 0 -4
BITMAP
810000
920000
920000
830000
830015
742872
7B8100
000000
006300
006300
003000
ENDCHAR
STARTCHAR lcommaaccent
ENCODING 316
SWIDTH 137 0
DWIDTH 2 0
BBX 2 14 0 -4
BITMAP
20
70
70
70
61
61
62
62
63
52
00
81
80
30
ENDCHAR
STARTCHAR Lcaron
ENCODING 317
SWIDTH 537 0
DWIDTH 6 0
BBX 6 10 0 0
BITMAP
230410
076300
001000
810000
920000
920000
830000
830015
742872
7B8100
ENDCHAR
STARTCHAR Ldot
ENCODING 319
SWIDTH 537 0
DWIDTH 6 0
BBX 6 7 0 0
BITMAP
810000
920000
920000
830100
833315
742872
7B8100
ENDCHAR
STARTCHAR ldot
ENCODING 320
SWIDTH 267 0
DWIDTH 3 0
BBX 3 10 0 0
BITMAP
2000
7000
7000
7000
6100
6100
6210
6440
6300
5200
ENDCHAR
STARTCHAR Lslash
ENCODING 321
SWIDTH 537 0
DWIDTH 6 0
BBX 7 7 -1 0
BITMAP
08100000
09200000
09200000
08586000
2B820150
07428720
07B81000
ENDCHAR
STARTCHAR lslash
ENCODING 322
SWIDTH 137 0
DWIDTH 2 0
BBX 5 10 -2 0
BITMAP
002000
007000
007000
007000
006100
006100
006660
18B710
006300
005200
ENDCHAR
STARTCHAR Nacute
ENCODING 323
SWIDTH 541 0
DWIDTH 6 0
BBX 6 9 0 0
BITMAP
009130
004081
940072
8C2063
64A053
543753
3606A4
180096
070023
ENDCHAR
STARTCHAR nacute
ENCODING 324
SWIDTH 483 0
DWIDTH 5 0
BBX 5 8 0 0
BITMAP
007300
205500
809860
929080
884090
7C0090
6A0090
470060
ENDCHAR
STARTCHAR Ncommaaccent
ENCODING 325
SWIDTH 541 0
DWIDTH 6 0
BBX 6 13 0 -4
BITMAP
000030
000081
940072
8C2063
64A053
543753
3606A4
180096
070023
000000
006400
006300
003000
ENDCHAR
STARTCHAR ncommaaccent
ENCODING 326
SWIDTH 483 0
DWIDTH 5 0
BBX 5 11 0 -4
BITMAP
200500
809860
929080
884090
7C0090
6A0090
470060
000000
009000
009000
003000
ENDCHAR
STARTCHAR Ncaron
ENCODING 327
SWIDTH 541 0
DWIDTH 6 0
BBX 6 10 0 0
BITMAP
060140
027630
002081
940072
8C2063
64A053
543753
3606A4
180096
070023
ENDCHAR
STARTCHAR ncaron
ENCODING 328
SWIDTH 483 0
DWIDTH 5 0
BBX 5 9 0 0
BITMAP
150330
047500
202500
809860
929080
884090
7C0090
6A0090
470060
ENDCHAR
STARTCHAR napostrophe
ENCODING 329
SWIDTH 483 0
DWIDTH 5 0
BBX 5 10 0 0
BITMAP
081000
080000
030000
200500
809860
929080
884090
7C0090
6A0090
470060
ENDCHAR
STARTCHAR Omacron
ENCODING 332
SWIDTH 382 0
DWIDTH 4 0
BBX 5 10 0 0
BITMAP
000210
278740
015100
096900
360900
810900
800900
800A00
905500
4B7000
ENDCHAR
STARTCHAR omacron
ENCODING 333
SWIDTH 266 0
DWIDTH 3 0
BBX 5 9 -1 0
BITMAP
000210
378730
000000
04C300
070700
080800
090900
083700
089100
ENDCHAR
STARTCHAR Obreve
ENCODING 334
SWIDTH 382 0
DWIDTH 4 0
BBX 4 9 0 0
BITMAP
1875
0391
0969
3609
8109
8009
800A
9055
4B70
ENDCHAR
STARTCHAR obreve
ENCODING 335
SWIDTH 266 0
DWIDTH 3 0
BBX 3 8 0 0
BITMAP
65A0
0510
4C30
7070
8080
9090
8370
8910
ENDCHAR
STARTCHAR Ohungarumlaut
ENCODING 336
SWIDTH 382 0
DWIDTH 4 0
BBX 5 10 0 0
BITMAP
005420
007910
015100
096900
360900
810900
800900
800A00
905500
4B7000
ENDCHAR
STARTCHAR ohungarumlaut
ENCODING 337
SWIDTH 266 0
DWIDTH 3 0
BBX 3 9 0 0
BITMAP
1740
4750
0000
4C30
7070
8080
9090
8370
8910
ENDCHAR
STARTCHAR OE
ENCODING 338
SWIDTH 732 0
DWIDTH 8 0
BBX 8 8 0 0
BITMAP
01571671
096EA300
36090000
81091560
800AA300
800E5015
905B4481
4B85B400
ENDCHAR
STARTCHAR oe
ENCODING 339
SWIDTH 628 0
DWIDTH 7 0
BBX 7 6 0 0
BITMAP
4C35A800
708A3A00
80CC6000
90D40190
83B30930
89188200
ENDCHAR
STARTCHAR Racute
ENCODING 340
SWIDTH 503 0
DWIDTH 6 0
BBX 6 10 0 0
BITMAP
001900
616830
8953A3
820470
828400
891000
8B7000
704A61
700043
600000
ENDCHAR
STARTCHAR racute
ENCODING 341
SWIDTH 396 0
DWIDTH 4 0
BBX 4 8 0 0
BITMAP
0090
0130
3068
8581
7910
5C00
2D00
0A00
ENDCHAR
STARTCHAR Rcommaaccent
ENCODING 342
SWIDTH 503 0
DWIDTH 6 0
BBX 6 13 0 -4
BITMAP
613630
8953A3
820470
828400
891000
8B7000
704A61
700043
600000
000000
008100
008000
003000
ENDCHAR
STARTCHAR rcommaaccent
ENCODING 343
SWIDTH 396 0
DWIDTH 4 0
BBX 4 10 0 -4
BITMAP
3068
8581
7910
5C00
2D00
0A00
0000
0370
0270
0120
ENDCHAR
STARTCHAR Rcaron
ENCODING 344
SWIDTH 503 0
DWIDTH 6 0
BBX 6 11 0 0
BITMAP
050150
018710
615630
8953A3
820470
828400
891000
8B7000
704A61
700043
600000
ENDCHAR
STARTCHAR rcaron
ENCODING 345
SWIDTH 396 0
DWIDTH 4 0
BBX 4 9 0 0
BITMAP
4105
0872
0110
3068
8581
7910
5C00
2D00
0A00
ENDCHAR
STARTCHAR Sacute
ENCODING 346
SWIDTH 541 0
DWIDTH 6 0
BBX 6 10 0 0
BITMAP
002800
004100
016950
191000
810000
900000
575310
002468
001593
058300
ENDCHAR
STARTCHAR sacute
ENCODING 347
SWIDTH 366 0
DWIDTH 4 0
BBX 4 9 0 -1
BITMAP
0190
0320
0272
3810
8000
899A
0038
06A0
0200
ENDCHAR
STARTCHAR Scircumflex
ENCODING 348
SWIDTH 541 0
DWIDTH 6 0
BBX 6 12 0 0
BITMAP
001100
008800
035280
050031
016950
191000
810000
900000
575310
002468
001593
058300
ENDCHAR
STARTCHAR scircumflex
ENCODING 349
SWIDTH 366 0
DWIDTH 4 0
BBX 4 11 0 -1
BITMAP
0100
0880
3527
5003
0272
3810
8000
899A
0038
06A0
0200
ENDCHAR
STARTCHAR Scedilla
ENCODING 350
SWIDTH 541 0
DWIDTH 6 0
BBX 6 12 0 -4
BITMAP
016950
191000
810000
900000
575310
002468
001593
058600
000730
0002A7
00016D
000241
ENDCHAR
STARTCHAR scedilla
ENCODING 351
SWIDTH 366 0
DWIDTH 4 0
BBX 4 10 0 -4
BITMAP
0272
3810
8000
899A
0038
06A0
0830
02B6
004D
0262
ENDCHAR
STARTCHAR Scaron
ENCODING 352
SWIDTH 541 0
DWIDTH 6 0
BBX 6 10 0 0
BITMAP
060150
018700
018950
191000
810000
900000
575310
002468
001593
058300
ENDCHAR
STARTCHAR scaron
ENCODING 353
SWIDTH 366 0
DWIDTH 4 0
BBX 4 9 0 -1
BITMAP
5005
1871
0372
3810
8000
899A
0038
06A0
0200
ENDCHAR
STARTCHAR Tcommaaccent
ENCODING 354
SWIDTH 595 0
DWIDTH 7 0
BBX 8 12 0 -4
BITMAP
01397883
785A3000
00062000
00054000
00036000
00028000
00009000
00008000
00000000
00009100
00009000
00003000
ENDCHAR
STARTCHAR tcommaaccent
ENCODING 355
SWIDTH 268 0
DWIDTH 3 0
BBX 4 13 -1 -4
BITMAP
0120
0540
0531
08C8
3B30
0640
0540
0450
0360
0010
0090
0090
0030
ENDCHAR
STARTCHAR Tcaron
ENCODING 356
SWIDTH 595 0
DWIDTH 7 0
BBX 8 11 0 0
BITMAP
00420500
00086200
00011000
01397883
785A3000
00062000
00054000
00036000
00028000
00009000
00008000
ENDCHAR
STARTCHAR Tbar
ENCODING 358
SWIDTH 595 0
DWIDTH 7 0
BBX 8 8 0 0
BITMAP
01397883
785A3000
00287500
01576100
00036000
00028000
00009000
00008000
ENDCHAR
STARTCHAR Utilde
ENCODING 360
SWIDTH 450 0
DWIDTH 5 0
BBX 5 11 0 -2
BITMAP
298160
316A30
500160
A00390
900680
900870
800A70
713680
297080
000070
000010
ENDCHAR
STARTCHAR utilde
ENCODING 361
SWIDTH 387 0
DWIDTH 4 0
BBX 5 9 0 -1
BITMAP
792610
51A700
200200
801800
901800
813800
72A900
2B6900
000100
ENDCHAR
STARTCHAR Umacron
ENCODING 362
SWIDTH 450 0
DWIDTH 5 0
BBX 5 11 0 -2
BITMAP
000210
378730
500160
A00390
900680
900870
800A70
713680
297080
000070
000010
ENDCHAR
STARTCHAR umacron
ENCODING 363
SWIDTH 387 0
DWIDTH 4 0
BBX 5 10 0 -1
BITMAP
001200
588710
000000
200200
801800
901800
813800
72A900
2B6900
000100
ENDCHAR
STARTCHAR Ubreve
ENCODING 364
SWIDTH 450 0
DWIDTH 5 0
BBX 5 10 0 -2
BITMAP
075A00
505260
A00390
900680
900870
800A70
713680
297080
000070
000010
ENDCHAR
STARTCHAR ubreve
ENCODING 365
SWIDTH 387 0
DWIDTH 4 0
BBX 4 9 0 -1
BITMAP
0866
0250
2002
8018
9018
8138
72A9
2B69
0001
ENDCHAR
STARTCHAR Uring
ENCODING 366
SWIDTH 450 0
DWIDTH 5 0
BBX 5 12 0 -2
BITMAP
026200
0A2900
046200
500160
A00390
900680
900870
800A70
713680
297080
000070
000010
ENDCHAR
STARTCHAR uring
ENCODING 367
SWIDTH 387 0
DWIDTH 4 0
BBX 4 9 0 -1
BITMAP
0461
1955
2563
8018
9018
8138
72A9
2B69
0001
ENDCHAR
STARTCHAR Uhungarumlaut
ENCODING 368
SWIDTH 450 0
DWIDTH 5 0
BBX 5 11 0 -2
BITMAP
016400
057400
500160
A00390
900680
900870
800A70
713680
297080
000070
000010
ENDCHAR
STARTCHAR uhungarumlaut
ENCODING 369
SWIDTH 387 0
DWIDTH 4 0
BBX 4 9 0 -1
BITMAP
0741
1690
2002
8018
9018
8138
72A9
2B69
0001
ENDCHAR
STARTCHAR Uogonek
ENCODING 370
SWIDTH 450 0
DWIDTH 5 0
BBX 6 10 0 -3
BITMAP
500160
A00390
900680
900870
800A70
713680
297080
0004A0
000910
0007A7
ENDCHAR
STARTCHAR uogonek
ENCODING 371
SWIDTH 387 0
DWIDTH 4 0
BBX 5 9 0 -3
BITMAP
200200
801800
901800
813800
72A900
2B6A00
007400
008240
002840
ENDCHAR
STARTCHAR Wcircumflex
ENCODING 372
SWIDTH 878 0
DWIDTH 10 0
BBX 10 13 0 -1
BITMAP
0000200000
0001A50000
0007164000
0005004000
0000000063
7000460080
64007A0090
1900881260
0A03536630
0838109800
0489004A00
00C6000200
0010000000
ENDCHAR
STARTCHAR wcircumflex
ENCODING 373
SWIDTH 566 0
DWIDTH 6 0
BBX 6 11 0 0
BITMAP
001000
009800
044370
050040
000000
405204
729909
28A649
0AB099
05B03C
009003
ENDCHAR
STARTCHAR Ycircumflex
ENCODING 374
SWIDTH 483 0
DWIDTH 5 0
BBX 5 13 0 0
BITMAP
002000
03A300
080720
140030
000030
000080
800080
390450
058910
007A00
005400
009000
008000
ENDCHAR
STARTCHAR ycircumflex
ENCODING 375
SWIDTH 363 0
DWIDTH 4 0
BBX 4 15 0 -4
BITMAP
0200
0970
5346
5004
0000
0005
9108
2909
0749
00BA
0049
0008
0017
0026
0045
ENDCHAR
STARTCHAR Ydieresis
ENCODING 376
SWIDTH 483 0
DWIDTH 5 0
BBX 5 9 0 0
BITMAP
011230
032580
800080
390450
058910
007A00
005400
009000
008000
ENDCHAR
STARTCHAR Zacute
ENCODING 377
SWIDTH 670 0
DWIDTH 7 0
BBX 8 10 0 0
BITMAP
00091000
00140000
47777710
00004B00
0001B100
000A3000
00750000
04800000
2A000000
ACBAAAA1
ENDCHAR
STARTCHAR zacute
ENCODING 378
SWIDTH 618 0
DWIDTH 7 0
BBX 7 8 0 0
BITMAP
00072000
00050000
00152000
498B3000
101B0000
00730000
00901460
03DA9630
ENDCHAR
STARTCHAR Zdotaccent
ENCODING 379
SWIDTH 670 0
DWIDTH 7 0
BBX 8 9 0 0
BITMAP
00060000
47777710
00004B00
0001B100
000A3000
00750000
04800000
2A000000
ACBAAAA1
ENDCHAR
STARTCHAR zdotaccent
ENCODING 380
SWIDTH 618 0
DWIDTH 7 0
BBX 7 7 0 0
BITMAP
00070000
00152000
498B3000
101B0000
00730000
00901460
03DA9630
ENDCHAR
STARTCHAR Zcaron
ENCODING 381
SWIDTH 670 0
DWIDTH 7 0
BBX 8 10 0 0
BITMAP
00601500
00276000
47797710
00004B00
0001B100
000A3000
00750000
04800000
2A000000
ACBAAAA1
ENDCHAR
STARTCHAR zcaron
ENCODING 382
SWIDTH 618 0
DWIDTH 7 0
BBX 7 8 0 0
BITMAP
05105000
01871000
00262000
498B3000
101B0000
00730000
00901460
03DA9630
ENDCHAR
STARTCHAR florin
ENCODING 402
SWIDTH 345 0
DWIDTH 4 0
BBX 5 13 -1 -3
BITMAP
005800
00B510
00B000
00A000
009460
04C510
028000
008000
009000
00A000
00B000
00B000
198000
ENDCHAR
STARTCHAR AEacute
ENCODING 508
SWIDTH 708 0
DWIDTH 8 0
BBX 8 10 0 0
BITMAP
00190000
02320000
0D084960
1B5B6000
36780010
45792720
646F6000
796F1054
810B3840
60068100
ENDCHAR
STARTCHAR aeacute
ENCODING 509
SWIDTH 705 0
DWIDTH 8 0
BBX 8 8 0 0
BITMAP
00028000
00041100
03C5B870
0B5C6840
559F8101
92AD0065
8A1B0570
A4078400
ENDCHAR
STARTCHAR Oslashacute
ENCODING 510
SWIDTH 382 0
DWIDTH 4 0
BBX 4 11 0 -1
BITMAP
0082
0040
0155
099A
3679
8189
8359
871A
9855
5D70
4100
ENDCHAR
STARTCHAR oslashacute
ENCODING 511
SWIDTH 266 0
DWIDTH 3 0
BBX 3 9 0 -1
BITMAP
0730
0530
4C80
7490
8780
9790
B570
B910
6000
ENDCHAR
STARTCHAR Scommaaccent
ENCODING 536
SWIDTH 541 0
DWIDTH 6 0
BBX 6 12 0 -4
BITMAP
016950
191000
810000
900000
575310
002468
001593
058300
000000
006400
006300
003000
ENDCHAR
STARTCHAR scommaaccent
ENCODING 537
SWIDTH 366 0
DWIDTH 4 0
BBX 4 10 0 -4
BITMAP
0272
3810
8000
899A
0038
06A0
0200
0540
0540
0310
ENDCHAR
STARTCHAR circumflex
ENCODING 710
SWIDTH 390 0
DWIDTH 4 0
BBX 4 4 0 7
BITMAP
0110
0880
3528
5003
ENDCHAR
STARTCHAR caron
ENCODING 711
SWIDTH 390 0
DWIDTH 4 0
BBX 5 3 0 6
BITMAP
230410
076300
001000
ENDCHAR
STARTCHAR breve
ENCODING 728
SWIDTH 390 0
DWIDTH 4 0
BBX 4 2 0 6
BITMAP
2884
0340
ENDCHAR
STARTCHAR dotaccent
ENCODING 729
SWIDTH 128 0
DWIDTH 1 0
BBX 1 1 0 6
BITMAP
70
ENDCHAR
STARTCHAR ring
ENCODING 730
SWIDTH 266 0
DWIDTH 3 0
BBX 3 3 0 5
BITMAP
2620
A290
3620
ENDCHAR
STARTCHAR ogonek
ENCODING 731
SWIDTH 366 0
DWIDTH 4 0
BBX 3 4 1 -3
BITMAP
0100
9200
9120
5930
ENDCHAR
STARTCHAR tilde
ENCODING 732
SWIDTH 458 0
DWIDTH 5 0
BBX 5 2 0 6
BITMAP
397350
408A10
ENDCHAR
STARTCHAR hungarumlaut
ENCODING 733
SWIDTH 239 0
DWIDTH 3 0
BBX 3 2 0 5
BITMAP
3530
6820
ENDCHAR
STARTCHAR Wgrave
ENCODING 7808
SWIDTH 878 0
DWIDTH 10 0
BBX 10 11 0 -1
BITMAP
0000720000
0000030000
0000000063
7000460080
64007A0090
1900881260
0A03536630
0838109800
0489004A00
00C6000200
0010000000
ENDCHAR
STARTCHAR wgrave
ENCODING 7809
SWIDTH 566 0
DWIDTH 6 0
BBX 6 8 0 0
BITMAP
007200
000300
405204
729909
28A649
0AB099
05B03C
009003
ENDCHAR
STARTCHAR Wacute
ENCODING 7810
SWIDTH 878 0
DWIDTH 10 0
BBX 10 11 0 -1
BITMAP
0000910000
0001400000
0000000063
7000460080
64007A0090
1900881260
0A03536630
0838109800
0489004A00
00C6000200
0010000000
ENDCHAR
STARTCHAR wacute
ENCODING 7811
SWIDTH 566 0
DWIDTH 6 0
BBX 6 8 0 0
BITMAP
000900
002300
405204
729909
28A649
0AB099
05B03C
009003
ENDCHAR
STARTCHAR Wdieresis
ENCODING 7812
SWIDTH 878 0
DWIDTH 10 0
BBX 10 11 0 -1
BITMAP
0000220000
0001450000
0000000063
7000460080
64007A0090
1900881260
0A03536630
0838109800
0489004A00
00C6000200
0010000000
ENDCHAR
STARTCHAR wdieresis
ENCODING 7813
SWIDTH 566 0
DWIDTH 6 0
BBX 6 9 0 0
BITMAP
002110
005410
000000
405204
729909
28A649
0AB099
05B03C
009003
ENDCHAR
STARTCHAR Ygrave
ENCODING 7922
SWIDTH 483 0
DWIDTH 5 0
BBX 5 11 0 0
BITMAP
00A000
002100
000030
000080
800080
390450
058910
007A00
005400
009000
008000
ENDCHAR
STARTCHAR ygrave
ENCODING 7923
SWIDTH 363 0
DWIDTH 4 0
BBX 4 12 0 -4
BITMAP
0910
0120
0005
9108
2909
0749
00BA
0049
0008
0017
0026
0045
ENDCHAR
STARTCHAR endash
ENCODING 8211
SWIDTH 399 0
DWIDTH 4 0
BBX 5 2 0 2
BITMAP
003710
687300
ENDCHAR
STARTCHAR emdash
ENCODING 8212
SWIDTH 549 0
DWIDTH 6 0
BBX 6 2 0 2
BITMAP
000142
688851
ENDCHAR
STARTCHAR quoteleft
ENCODING 8216
SWIDTH 155 0
DWIDTH 2 0
BBX 2 4 0 3
BITMAP
70
81
61
10
ENDCHAR
STARTCHAR quoteright
ENCODING 8217
SWIDTH 155 0
DWIDTH 2 0
BBX 2 4 0 3
BITMAP
70
81
61
10
ENDCHAR
STARTCHAR quotesinglbase
ENCODING 8218
SWIDTH 155 0
DWIDTH 2 0
BBX 2 3 0 0
BITMAP
72
63
42
ENDCHAR
STARTCHAR quotedblleft
ENCODING 8220
SWIDTH 212 0
DWIDTH 2 0
BBX 2 4 0 5
BITMAP
53
76
76
31
ENDCHAR
STARTCHAR quotedblright
ENCODING 8221
SWIDTH 212 0
DWIDTH 2 0
BBX 2 4 0 5
BITMAP
53
76
76
31
ENDCHAR
STARTCHAR quotedblbase
ENCODING 8222
SWIDTH 212 0
DWIDTH 2 0
BBX 2 4 0 0
BITMAP
10
86
76
64
ENDCHAR
STARTCHAR dagger
ENCODING 8224
SWIDTH 268 0
DWIDTH 3 0
BBX 4 10 -1 -1
BITMAP
0120
0540
0531
08C8
3B30
0640
0540
0450
0360
0010
ENDCHAR
STARTCHAR daggerdbl
ENCODING 8225
SWIDTH 326 0
DWIDTH 4 0
BBX 4 10 0 -1
BITMAP
0300
0900
0801
2CB4
8B44
6D51
0900
0900
0800
0100
ENDCHAR
STARTCHAR bullet
ENCODING 8226
SWIDTH 189 0
DWIDTH 2 0
BBX 2 2 0 2
BITMAP
6B
33
ENDCHAR
STARTCHAR ellipsis
ENCODING 8230
SWIDTH 387 0
DWIDTH 4 0
BBX 4 1 0 0
BITMAP
6357
ENDCHAR
STARTCHAR guilsinglleft
ENCODING 8249
SWIDTH 409 0
DWIDTH 5 0
BBX 5 6 0 1
BITMAP
000640
008600
193000
490000
03A500
000610
ENDCHAR
STARTCHAR guilsinglright
ENCODING 8250
SWIDTH 450 0
DWIDTH 5 0
BBX 5 7 0 1
BITMAP
100000
3A4000
006910
000720
007600
095000
430000
ENDCHAR
STARTCHAR fraction
ENCODING 8260
SWIDTH 306 0
DWIDTH 3 0
BBX 3 9 0 -1
BITMAP
0050
0080
0260
0610
0800
1700
5200
7000
6000
ENDCHAR
STARTCHAR Euro
ENCODING 8364
SWIDTH 589 0
DWIDTH 6 0
BBX 7 9 0 -1
BITMAP
00199000
00810000
00800000
38B60000
29232000
5B751000
18000A10
03A9A400
00010000
ENDCHAR
STARTCHAR trademark
ENCODING 8482
SWIDTH 1278 0
DWIDTH 14 0
BBX 14 9 0 0
BITMAP
00000014000030
0139788E5001C0
785A3007900590
00062007450770
00054008091761
0003600904A353
0002800A006034
0000900A100027
00008009100019
ENDCHAR
STARTCHAR minus
ENCODING 8722
SWIDTH 358 0
DWIDTH 4 0
BBX 4 2 0 2
BITMAP
2686
1210
ENDCHAR
STARTCHAR commaaccent
ENCODING 63171
SWIDTH 450 0
DWIDTH 5 0
BBX 2 3 1 -4
BITMAP
18
09
03
ENDCHAR
STARTCHAR fi
ENCODING 64257
SWIDTH 409 0
DWIDTH 5 0
BBX 4 11 0 -1
BITMAP
0580
0B51
0B04
0A02
094C
4C7A
2809
0909
0A08
0808
0001
ENDCHAR
STARTCHAR fl
ENCODING 64258
SWIDTH 416 0
DWIDTH 5 0
BBX 5 10 0 0
BITMAP
058100
0B5900
0B0700
0A0700
094B00
4C7810
280610
090620
0A0720
080720
ENDCHAR
STARTCHAR .notdef
ENCODING -1
SWIDTH 450 0
DWIDTH 5 0
BBX 1 1 0 0
BITMAP
00
ENDCHAR
STARTCHAR .null
ENCODING -1
SWIDTH 0 0
DWIDTH 0 0
BBX 1 1 0 0
BITMAP
00
ENDCHAR
STARTCHAR nonmarkingreturn
ENCODING -1
SWIDTH 450 0
DWIDTH 5 0
BBX 1 1 0 0
BITMAP
00
ENDCHAR
ENDFONT
